/* XPM */
static char * grass_xpm[] = {
"64 64 128 2",
"  	c #78C273",
". 	c #76C373",
"+ 	c #77C373",
"@ 	c #75C373",
"# 	c #77C273",
"$ 	c #75C575",
"% 	c #73C373",
"& 	c #70C172",
"* 	c #72C574",
"= 	c #71C575",
"- 	c #6DC16F",
"; 	c #6EC171",
"> 	c #6FC371",
", 	c #6DC070",
"' 	c #70C371",
") 	c #75C576",
"! 	c #75C574",
"~ 	c #75C475",
"{ 	c #73C475",
"] 	c #74C779",
"^ 	c #6ABE6F",
"/ 	c #60B767",
"( 	c #69C271",
"_ 	c #6AC574",
": 	c #57B562",
"< 	c #59B765",
"[ 	c #5DBA68",
"} 	c #57B161",
"| 	c #64BC6B",
"1 	c #73C779",
"2 	c #72C677",
"3 	c #74C677",
"4 	c #75C374",
"5 	c #73C477",
"6 	c #72C577",
"7 	c #69BF70",
"8 	c #59B262",
"9 	c #5DB868",
"0 	c #67C674",
"a 	c #5ABA68",
"b 	c #53B462",
"c 	c #58B765",
"d 	c #55B160",
"e 	c #62BC6C",
"f 	c #70C778",
"g 	c #70C476",
"h 	c #74C577",
"i 	c #77C374",
"j 	c #78C475",
"k 	c #77C578",
"l 	c #6EC374",
"m 	c #59B061",
"n 	c #57B061",
"o 	c #69C675",
"p 	c #62BF6E",
"q 	c #56B463",
"r 	c #55AF5F",
"s 	c #62BA6B",
"t 	c #70C677",
"u 	c #71C476",
"v 	c #76C578",
"w 	c #76C375",
"x 	c #77C274",
"y 	c #78C374",
"z 	c #75C275",
"A 	c #72C274",
"B 	c #73C576",
"C 	c #5EB263",
"D 	c #57AE5E",
"E 	c #6BC574",
"F 	c #65C16F",
"G 	c #60BD6A",
"H 	c #61BB6A",
"I 	c #57AF5F",
"J 	c #63B869",
"K 	c #74C476",
"L 	c #77C577",
"M 	c #78C274",
"N 	c #76C274",
"O 	c #74C274",
"P 	c #79C879",
"Q 	c #69BA6B",
"R 	c #61B665",
"S 	c #6FC675",
"T 	c #6AC371",
"U 	c #6CC573",
"V 	c #6BC271",
"W 	c #5DB362",
"X 	c #67BA6A",
"Y 	c #76C476",
"Z 	c #77C476",
"` 	c #79C374",
" .	c #79C477",
"..	c #79C476",
"+.	c #7CC87A",
"@.	c #74C374",
"#.	c #75C979",
"$.	c #72C676",
"%.	c #71C675",
"&.	c #68BA6A",
"*.	c #6FBF70",
"=.	c #78C577",
"-.	c #76C174",
";.	c #79C376",
">.	c #79C375",
",.	c #78C175",
"'.	c #77C074",
").	c #77C174",
"!.	c #76C676",
"~.	c #72C374",
"{.	c #70C071",
"].	c #77C777",
"^.	c #71C172",
"/.	c #7AC477",
"(.	c #74BE71",
"_.	c #79C276",
":.	c #7AC376",
"<.	c #79C175",
"[.	c #78C275",
"}.	c #77C375",
"|.	c #75C375",
"1.	c #75C274",
"2.	c #76C475",
"3.	c #78C375",
"4.	c #79C275",
"5.	c #78C074",
"6.	c #79C174",
"7.	c #79C273",
"                                                                                                                                ",
"                                                                                                                                ",
"                                                                                                                                ",
"                                                                                                                                ",
"                                                                                                                                ",
"                                                                                                                                ",
"                                                                                                                                ",
"                                                                                                                                ",
"                                                                                                                                ",
"                                                                                                                                ",
"                                                                                                                                ",
"                                                                                                                                ",
"                                                                                                                                ",
"                                                                                                                                ",
"                                                          . . . . . . . . . . . . . . +                                         ",
"                                                          . . . . . . . . . . . . . . +                                         ",
"                                                          . . . . . . . . . . . . . . +                                         ",
"                                                          . . . . . . . . . . . . . . +                                         ",
"                                                          . . . . . . . . . . . . . . +                                         ",
"                                                          . . . . . . . . . . . . . . +                                         ",
"                                                          . . . . . . . . . . . . . . +                                         ",
"                                                          . . . . . . . . . . . . . . +                                         ",
"                                                          . . . . . . . . . . . . . . +                                         ",
"                                                          . . . . . . . . . . . . . . +                                         ",
"                                                          . . . . . . . . . . . . . . +                                         ",
"                                                          . . . . . . . . . . . . . . +                                         ",
"                                                          . . . . . . . . . . . . . . +                                         ",
"                                                          . . . . @ . @ . . . . . . . +                                         ",
"                                                        # @ $ % & * = - ; > , ' ) ! ~ .                                         ",
"                                                        @ { ] ^ / ( _ : < [ } | 1 2 3 4 +                                       ",
"                                                        4 5 6 7 8 9 0 a b c d e f g h ~ i                                       ",
"                                                        j k 5 l m n o p q < r s t u v w x                                       ",
"                                                        y z A B C D E F G H I J B K L i                                         ",
"                                                        M N O P Q R S T U V W X ) Y Z M                                         ",
"                                                        `  ...+.@.& #.$.%.$.&.*.=.-.;.>.                                        ",
"                                                          ,.'.).N ~ !.~.{.].^.Z /.(._.:.                                        ",
"                                                          <.<.,.[.}.w |.1.2.w 3.4.5.<.4.                                        ",
"                                                          <.<.<.[.[.}.w w w [.[.<.<.<.6.                                        ",
"                                                          7.7.7.                7.7.7.7.                                        ",
"                                                          7.7.7.                7.7.7.7.                                        ",
"                                                                                                                                ",
"                                                          # # #                   # #                                           ",
"                                                          . . . #               . . . +                                         ",
"                                                          + + + #               + + + #                                         ",
"                                                                                                                                ",
"                                                                                                                                ",
"                                                                                                                                ",
"                                                                                                                                ",
"                                                                                                                                ",
"                                                                                                                                ",
"                                                                                                                                ",
"                                                                                                                                ",
"                                                                                                                                ",
"                                                                                                                                ",
"                                                                                                                                ",
"                                                                                                                                ",
"                                                                                                                                ",
"                                                                                                                                ",
"                                                                                                                                ",
"                                                                                                                                ",
"                                                                                                                                ",
"                                                                                                                                ",
"                                                                                                                                ",
"                                                                                                                                "};
