/* XPM */
static char * 1_xpm[] = {
"64 64 401 2",
"  	c #8AC4F8",
". 	c #91C9F8",
"+ 	c #98CDF9",
"@ 	c #9DD0F9",
"# 	c #96CCF8",
"$ 	c #8CC7F8",
"% 	c #85C3F7",
"& 	c #83C2F7",
"* 	c #88C5F7",
"= 	c #8BC6F8",
"- 	c #8EC7F8",
"; 	c #88C4F8",
"> 	c #84C1F7",
", 	c #85C1F7",
"' 	c #87C2F7",
") 	c #93CAF8",
"! 	c #9ACEF9",
"~ 	c #9CD0F9",
"{ 	c #94CBF8",
"] 	c #84C3F7",
"^ 	c #82C1F7",
"/ 	c #7FBFF7",
"( 	c #82C0F7",
"_ 	c #87C4F7",
": 	c #8FC8F8",
"< 	c #8DC6F8",
"[ 	c #8AC5F8",
"} 	c #99CEF9",
"| 	c #92CAF8",
"1 	c #89C5F7",
"2 	c #7EBEF7",
"3 	c #7BBDF6",
"4 	c #7BBCF6",
"5 	c #80BFF7",
"6 	c #95CBF8",
"7 	c #96CCF9",
"8 	c #90C8F8",
"9 	c #88C3F7",
"0 	c #83C1F7",
"a 	c #7ABBF6",
"b 	c #78BAF6",
"c 	c #81BFF7",
"d 	c #8CC6F8",
"e 	c #7CBCF6",
"f 	c #7BBBF6",
"g 	c #83C0F7",
"h 	c #8BC5F8",
"i 	c #82BFF7",
"j 	c #80C0F7",
"k 	c #81C0F7",
"l 	c #86C2F7",
"m 	c #87C3F8",
"n 	c #7FBEF7",
"o 	c #77B9F6",
"p 	c #79BAF6",
"q 	c #7FBDF7",
"r 	c #80BEF7",
"s 	c #7EBDF7",
"t 	c #85C2F7",
"u 	c #89C4F8",
"v 	c #86C3F8",
"w 	c #89C5F8",
"x 	c #7DBDF7",
"y 	c #78B9F6",
"z 	c #92C9F9",
"A 	c #97CCF9",
"B 	c #96CBF9",
"C 	c #94CAF9",
"D 	c #91C8F8",
"E 	c #8CC5F8",
"F 	c #91C9F9",
"G 	c #92C8F9",
"H 	c #88C3F8",
"I 	c #85C2F8",
"J 	c #90C8F9",
"K 	c #95CBF9",
"L 	c #8FC7F8",
"M 	c #7CBCF7",
"N 	c #84C1F8",
"O 	c #92CAF9",
"P 	c #9ED1FA",
"Q 	c #9FD1FA",
"R 	c #9ED0FA",
"S 	c #8FC8F9",
"T 	c #8CC6F9",
"U 	c #83C0F8",
"V 	c #7DBCF7",
"W 	c #9DD0FA",
"X 	c #99CEFA",
"Y 	c #93CAF9",
"Z 	c #8BC5F9",
"` 	c #90C9F9",
" .	c #9CCFFA",
"..	c #9ACEFA",
"+.	c #94CBF9",
"@.	c #9BCFFA",
"#.	c #95CCF9",
"$.	c #8DC6F9",
"%.	c #98CDFA",
"&.	c #A5D4FB",
"*.	c #AAD7FB",
"=.	c #A9D6FB",
"-.	c #A1D2FA",
";.	c #99CDFA",
">.	c #86C2F8",
",.	c #81BFF8",
"'.	c #9ACFFA",
").	c #8FC7F9",
"!.	c #8BC6F9",
"~.	c #97CCFA",
"{.	c #A0D1FA",
"].	c #99CDF9",
"^.	c #8EC7F9",
"/.	c #97CDFA",
"(.	c #9BCEFA",
"_.	c #A8D6FB",
":.	c #8AC6F8",
"<.	c #84C2F7",
"[.	c #97CDF9",
"}.	c #A6D5FA",
"|.	c #A2D2FA",
"1.	c #8DC7F8",
"2.	c #A0D2FA",
"3.	c #A5D5FA",
"4.	c #8BC7F8",
"5.	c #87C4F8",
"6.	c #A5D4FA",
"7.	c #86C4F8",
"8.	c #86C3F7",
"9.	c #88C5F8",
"0.	c #9FD2FA",
"a.	c #8FC9F8",
"b.	c #9ACFF9",
"c.	c #93CBF9",
"d.	c #90C9F8",
"e.	c #96CDF9",
"f.	c #8DC8F8",
"g.	c #9BCFF9",
"h.	c #9DD1FA",
"i.	c #98CEF9",
"j.	c #91CAF8",
"k.	c #8EC9F8",
"l.	c #8CC8F8",
"m.	c #93CCF8",
"n.	c #95CCF8",
"o.	c #97CEF9",
"p.	c #98CFF9",
"q.	c #93CBF8",
"r.	c #90CAF8",
"s.	c #92CBF8",
"t.	c #97CEF8",
"u.	c #96CDF8",
"v.	c #89C6F8",
"w.	c #95CDF8",
"x.	c #99CFF9",
"y.	c #94CCF8",
"z.	c #9ED2F9",
"A.	c #A0D3F9",
"B.	c #7ABBF7",
"C.	c #7DBEF7",
"D.	c #85C3F8",
"E.	c #9FD3F9",
"F.	c #9DD1F9",
"G.	c #75B8F6",
"H.	c #74B8F6",
"I.	c #76B9F6",
"J.	c #84C2F8",
"K.	c #A1D2F9",
"L.	c #A8D6FA",
"M.	c #ACD8FA",
"N.	c #AFD9FA",
"O.	c #B2DBFA",
"P.	c #AEDAFA",
"Q.	c #A0D2F9",
"R.	c #ABD7FA",
"S.	c #A5D5F9",
"T.	c #9ED1F9",
"U.	c #A3D4F9",
"V.	c #ADD9FA",
"W.	c #AFDAFA",
"X.	c #B1DBFA",
"Y.	c #A7D5FA",
"Z.	c #98CCF9",
"`.	c #7DBDF6",
" +	c #AED9FA",
".+	c #9CCFF9",
"++	c #79BBF6",
"@+	c #87C3F7",
"#+	c #8EC8F8",
"$+	c #9BCEF9",
"%+	c #92C9F8",
"&+	c #89C3F8",
"*+	c #85C1F8",
"=+	c #84C0F7",
"-+	c #87C2F8",
";+	c #9ED0F9",
">+	c #88C4F7",
",+	c #7ABAF6",
"'+	c #76B7F6",
")+	c #72B5F5",
"!+	c #6FB3F5",
"~+	c #73B5F5",
"{+	c #97CBF9",
"]+	c #8BC6F7",
"^+	c #7FBEF6",
"/+	c #74B6F5",
"(+	c #74B6F6",
"_+	c #7BBBF7",
":+	c #ABD8FB",
"<+	c #7EBDF6",
"[+	c #73B6F5",
"}+	c #8EC8F9",
"|+	c #9FD1F9",
"1+	c #8CC7F9",
"2+	c #94CAF8",
"3+	c #86C4F7",
"4+	c #8FC9F9",
"5+	c #75B7F6",
"6+	c #8EC6F8",
"7+	c #8AC5F7",
"8+	c #7CBDF7",
"9+	c #7BBCF7",
"0+	c #83C1F8",
"a+	c #83C2F8",
"b+	c #70B4F5",
"c+	c #6FB4F5",
"d+	c #71B5F6",
"e+	c #89C5F9",
"f+	c #76B8F6",
"g+	c #81C0F8",
"h+	c #88C5F9",
"i+	c #82C0F8",
"j+	c #70B4F6",
"k+	c #74B7F6",
"l+	c #80BFF8",
"m+	c #69B1F5",
"n+	c #63ACF4",
"o+	c #5FA9F4",
"p+	c #62ABF4",
"q+	c #66AEF5",
"r+	c #67AFF5",
"s+	c #70B5F6",
"t+	c #A5D5FB",
"u+	c #A7D6FB",
"v+	c #A6D6FB",
"w+	c #6EB4F5",
"x+	c #6CB3F5",
"y+	c #6BB2F5",
"z+	c #6CB2F5",
"A+	c #69B0F5",
"B+	c #94CBFA",
"C+	c #A6D5FB",
"D+	c #6EB5F5",
"E+	c #75B9F6",
"F+	c #78BBF7",
"G+	c #71B6F6",
"H+	c #72B5F6",
"I+	c #6FB5F5",
"J+	c #76BAF6",
"K+	c #73B8F6",
"L+	c #7ABDF7",
"M+	c #7BBDF7",
"N+	c #72B7F6",
"O+	c #77BAF6",
"P+	c #A1D3FA",
"Q+	c #84C3F8",
"R+	c #7EBFF7",
"S+	c #7FC0F7",
"T+	c #81C1F7",
"U+	c #7CBEF7",
"V+	c #8AC7F8",
"W+	c #8BC8F8",
"X+	c #87C5F8",
"Y+	c #91CBF8",
"Z+	c #95CDF9",
"`+	c #89C7F8",
" @	c #94CDF9",
".@	c #88C6F8",
"+@	c #9AD0F9",
"@@	c #93CCF9",
"#@	c #8FCAF8",
"$@	c #94CCF9",
"%@	c #96CEF9",
"&@	c #92CBF9",
"*@	c #8CC7F7",
"=@	c #8DC9F8",
"-@	c #84C4F7",
";@	c #81C2F7",
">@	c #82C2F7",
",@	c #83C3F7",
"'@	c #8DC7F7",
")@	c #82C3F7",
"!@	c #8AC6F7",
"~@	c #7CBEF6",
"{@	c #76B9F5",
"]@	c #73B7F5",
"^@	c #77B9F5",
"/@	c #80BFF6",
"(@	c #8DC8F7",
"_@	c #75B9F5",
":@	c #79BBF5",
"<@	c #82C1F6",
"[@	c #85C4F7",
"}@	c #80C2F7",
"|@	c #75B8F5",
"1@	c #83C1F6",
"2@	c #78B9F5",
"3@	c #83C0F6",
"4@	c #71B5F5",
"5@	c #71B6F5",
"6@	c #78BBF6",
"7@	c #74B8F5",
"8@	c #81BFF6",
"9@	c #72B6F5",
"0@	c #7EBEF6",
"a@	c #78BAF5",
"b@	c #79BCF6",
"c@	c #77BAF5",
"d@	c #6CB2F4",
"e@	c #61ABF3",
"f@	c #65ADF3",
"g@	c #72B7F5",
"h@	c #8AC4F7",
"i@	c #6BB1F4",
"j@	c #66AEF4",
"k@	c #6EB3F4",
"l@	c #79BAF5",
"m@	c #8CC5F7",
"n@	c #69B0F4",
"o@	c #68AFF4",
"p@	c #70B5F5",
"q@	c #8CC6F7",
"r@	c #64ADF3",
"s@	c #63ACF3",
"t@	c #8DC6F7",
"u@	c #6FB3F4",
"v@	c #80BEF6",
"w@	c #6DB2F4",
"x@	c #67AFF4",
"y@	c #6DB3F4",
"z@	c #7FBFF6",
"A@	c #7ABCF6",
"B@	c #89C4F7",
"C@	c #97CCF8",
"D@	c #96CBF8",
"E@	c #8BC5F7",
"F@	c #A3D3FA",
"G@	c #A9D6FA",
"H@	c #A3D2F9",
"I@	c #9DCFF9",
"J@	c #A6D4FA",
"K@	c #A1D1F9",
"L@	c #A0D1F9",
"M@	c #A3D4FA",
"N@	c #AAD7FA",
"O@	c #ABD8FA",
"P@	c #A2D3FA",
"Q@	c #A1D3F9",
"R@	c #A7D6FA",
"S@	c #97CDF8",
"T@	c #9BD0F9",
"U@	c #7BBBF5",
"V@	c #7ABAF5",
"W@	c #82C0F6",
"X@	c #81C0F6",
"Y@	c #70B4F4",
"Z@	c #76B8F5",
"`@	c #70B3F4",
" #	c #98CDF8",
".#	c #84C2F6",
"+#	c #84C1F6",
"@#	c #71B5F4",
"##	c #74B7F5",
"$#	c #71B4F4",
"%#	c #77B8F5",
"&#	c #85C2F6",
"*#	c #90C8F7",
"=#	c #72B5F4",
"-#	c #76B7F5",
";#	c #7CBCF5",
">#	c #7FBDF6",
",#	c #8EC7F7",
"'#	c #8EC8F7",
")#	c #8FC9F7",
"!#	c #7DBCF6",
"~#	c #7ABBF5",
"{#	c #A4D4F9",
"]#	c #92CCF8",
"^#	c #83C2F6",
"/#	c #8BC7F7",
"(#	c #80C0F6",
"_#	c #9CD1F9",
":#	c #7CBDF6",
"<#	c #7ABCF5",
"[#	c #94CDF8",
"}#	c #69B0F3",
"|#	c #72B6F4",
"1#	c #9FD2F9",
"2#	c #7DBEF6",
"3#	c #7EBFF6",
"4#	c #81C1F6",
"  . + @ @ # $ % & & & & * = - ; > , '   - - - ) ! ~ { = ] & & ^ / ( _ : < [ [ - - - - - : { } | 1 & ^ 2 3 4 5 [ 6 + 7 8 - - - - ",
"- - < 9 0 ^ & & & & & ^ / a b c [ - - - - - - d > e / & & & & & & ^ 2 f g d - - - - - - h i b 4 j & & & & & & k c l < - - - - - ",
"= m g n e o b a a a p o o o o o o a q c c r r n ( g g r n f a a b o o o o o f r c c q a o o a s c g t 0 c e b o o o o e 5 c c s ",
"[ [ [ [ [ ; c p o o o o o o o o o o o p ( u [ [ [ [ [ [ [ [ > 4 o o o o o o o o o o o o n m [ [ [ [ [ [ [ [ v 2 o o o o o o o o ",
"[ [ [ [ [ [ [ w ( f o o o o o o o e g w [ [ [ [ [ [ [ [ [ [ [ [ l x y o o o o o o p 5 ; [ [ [ [ [ [ [ [ [ [ [ [ ; 5 p o o o o o ",
"[ ; m m [ [ [ d z A B C D 8 E u u [ [ [ ; m m u [ [ [ [ [ [ [ = F 7 A C G D < H I m ; [ [ [ [ [ [ [ [ [ [ [ [ [ J K A z L < <   ",
"M M M M M N O P Q Q Q Q Q Q Q Q } d c x M M M M s g ; [ [ - A P Q Q Q Q R A F S T U M V c m [ [ [ [ [ [ [ d K W X Y S S S S S Y ",
"M M s N Z S S ` A  .Q Q Q Q R ..Y S Z N s M M M M M x m +.Q Q Q Q Q @.#.J S S S S S $.I n M n I u [ [ 8 A  .%.` S S S S S S S S ",
"C F S S S K Q &.*.=.-.;.z >.s ,.h 7 '.@...%.Y ).!.T ~.{.R ..].A Y ^.Z Z S Y /...@.@...X 7 J >.>.h ^.+ (. .{.Q 7 S S J +.%...@.@.",
"S %.@.R &.*.*._.R O h >.g v :.<.x n = [.W W W P }.=.Q C F F F F F F ^.[ ; u - - J Y + @.7 7 } +.F F F F F F A |.&.|.@.7 z 1.m x ",
"7 + 2.}.3.2.@.+.u g 0 v :.4.4.4.4.5.0 5.F @.P 6.6.2.P ..[.K +.#.` :.:.4.4.:.7.5.8.v v 9.[.0.2.2.W X [.+.+.7 +  .W ! a.w 5.( ^ 0 ",
"2.2.2.2.P b.c.4.4.4.4.4.4.4.4.4.4.4.4.4.4.d.[.W 2.2.2.2.2.@.e.f.4.4.4.4.4.4.4.4.4.4.4.4.4.f.#.g.0.2.2.2.2.h.i.j.4.4.4.4.4.4.4.4.",
"a.j.j.f.4.4.4.4.4.4.4.4.4.4.4.4.4.f.f.k.k.f.f.4.4.f.a.l.4.4.4.4.4.4.4.4.l.f.k.k.f.f.4.4.4.4.4.4.4.$ a.f.4.4.4.f.f.k.k.f.l.4.4.4.",
"m.n.o.b.p.q.l.4.4.4.4.4.4.4.4.f.r.r.s.t.b.b.b.u.a.9.v.4.4.4.4.4.4.4.k.r.r.j.w.x.b.b.b.w.k.4.4.5.5.5.:.4.4.k.r.r.r.y.p.b.b.x.e.r.",
"5.5.5.9.: o.z.u.k.f.l.f.f.k.r.r.y.~ A.z.#.1.5.5.5.5.k B.C.D.f.f.k.r.r.s.x.E.A.A.A.A.A.F.{ v B.G.H.G.I.B.^ = j.t.z.A.A.A.A.A.A.A.",
"J.I 5.5.5.5.w e.z.~ K.L.M.M.N.O.P.A.d.D.J.I 5.5.5.5.5.5.= - q.Q.R.M.R.S.A.A.F.F.F.b.j.5.5.5.1.| | d.: : h m 4.i.A.A.F.F.F.T.A.A.",
"> e b x 0 5.5.w | U.V.W.O.X.W.Y.Z.h > `.b b p x J.9.d.} ~ ~ ~ ~ T.Y. +R..+d l g e b ++n d } ~ ~ ~ ~ ~ ~ ~ ~ [.5.n 5 t l 9 @+1.].",
"[ [ ; m t u | b.~ ~ ~ ~ g.#.- [ [ [ [ [ u m t l m #+7 g.~ ~ ~ ~ b.K 1.[ [ [ u m t t m [ [ : [.g.~ ~ ~ ~ b.+.d [ w m t t m [ [ [ ",
"[ [ [ [ [ [ [ [ = - - 1.- . . : 1.[ [ [ [ [ [ [ [ [ [ [ d - - = [ [ [ h - : . 8 - h [ [ [ [ [ [ d - - h [ [ [ [ [ [ [ [ < - . . ",
"u u [ [ [ [ [ [ d Y ! .+.+.+.+.+.+$+B 1.u [ [ [ [ [ [ [ [ [ [ [ [ . A .+.+.+$+$+.+.++ . h [ [ [ [ [ [ [ [ [ [ [ [ d C ! .+.+.+.+",
"0 0 0 > l ; 1.K g..+.+.+.+$+Z.A K Y 7 7 z u > 8.u [ [ [ [ [ h %+! .+.++ z F F z #.A ].g.$+| = [ [ [ [ [ [ u 8.u 8 K z F z C $+.+",
"= h h = : Y + ! .+.+$+z &+U c s s s s *+- 7 +.8 < 1.8 . +.A .+.+].L g s s s s s s *+- 7 + ! .+Z.K %+. 8 : : Y < =+s s s s s s -+",
"< K 7 7 7 #.. : < =+V V s s s s s s s s s i < +.7 K . : : D 8 &+r s s s s s s s s s s c E O . : . 8 %+#.C h r s s s s s s s s s ",
";+;+T.7 >+,+'+)+!+!+!+!+~+,+s s s g >.>.< {+A : = 1 ]+8.^+/+!+!+(+_+s s q U >.>.>.>.i p y 4 0 1 ]+]+>+c e V s s n U >.>.>.I c y ",
":+Y.{.].. _ <+[+!+!+!+!+!+!+[+r = }+X Y.:+}.|++ d._ % % % <.e )+!+!+(+c d S ` }+1+; d 2+: 3+% % % % % % % <.( *+T 4+` }+d m 5 V ",
"! ! ! ! ! } ) 1.> f '+[+5+,+c l < 7 ! ! ! ! ! ! ! } ) $ 1 _ _ 1 ' , > n n n ( -+6+A ! ! ! ].| d 1 _ >+7+- { ! ].D u > n n n g H ",
"a.f.f.#+j.7 ! ! ! ! ! 7 Y C C K + +.d.f.f.#+. K ! ! ! ! ! 7 Y C C K + K d.#+f.f.d.+.].! ! ! } 7 Y C C K ].7 j.#+f.f.a.Y ].! ! ! ",
"5.:.:.:.:.:.1.+.+ z h u u u m k M 5 5.:.:.:.:.:.4.Y + . [ u u u H U 8+j 5.:.:.:.:.:.= j.A D [ u u u ; N 2 k ; :.:.:.:.:.:.d.K 8 ",
"9+2 ^ J.v D.J.5 8+2 c c 5 x 9+9+9+9+9+2 0+I v D.J.5 M 2 c c c 2 9+9+9+9+9+n 0+I v D.J.5 9+x 5 c c 2 9+9+9+9+9+/ 0+I v D.a+/ 9+x ",
"9+9+9+9+9+9+9+9+9+9+9+9+k m [ h [ [ >.2 9+9+9+9+9+9+9+9+9+9+9+9+9+9+c m [ h h [ >.n 9+9+9+9+9+9+9+9+9+9+9+9+9+9+5 >.[ h h [ >.5 ",
"G.b+c+c+d+M I m e+w z + K Y Y Y Y Y Y Y d B.c+c+b+f+g+5.h+5.I i+>.J Y Y Y Y Y Y Y F *+G.j+k+M I e+m I l+9+9+N S Y Y Y Y Y Y J u ",
"m+n+o+p+q+r+s+0+'.t+u+u+v+Q 7 Y Y Y < e w+x+y+z+z+A+r+j+i+B+@.t+C+R K Y Y Y Y h a x+D+E+F+G+z+A+H+,.4+B+X ..+.Y Y Y Y Y u b I+J+",
"K+J+L+M+M+M+M+M+/ z R u+u+u+u+R J 2 N+N+K+O+M+M+M+M+M+M+M+k C 2.u+u+u+P++ [ 8+N+H.F+M+M+M+M+M+M+M+M+0+K -.u+C+-. .K u a E+F+M+M+",
"Q+7.7.D.a+R+M+M+M+M+M+S+^ Q+T+j C.j a+7.7.D.a+S+M+M+M+M+M+S+T+^ T+T+/ S+a+D.7.7.a+j M+M+M+M+8+j T+^ T+j U+R+Q+7.7.7.Q+j U+M+M+M+",
"k.v.v.v.v.v.7.j U+a+v.V+V+V+W+s.x.e.f.v.v.v.v.v.X+T+C.Q+v.V+V+V+4.Y+p.Z+f.v.v.v.v.v.9.^ R+Q+`+V+V+V+V+r.o. @l.v.v.v.v.v..@a+S+Q+",
"+@p.@@r.#@r.j.Z+p.Z+$@m.#@s.%@+@+@+@+@o.&@r.#@r.Y+Z+x.%@$@$@$@$@Z+Z+p.+@+@o.&@r.#@r.Y+Z++@o.$@$@$@Z+x.o.Z+Z+x.%@&@r.#@r.Y+e.+@o.",
"*@a.Y+o.+@+@+@+@p.=@-@;@;@;@;@>@3+]+k.*@*@a.s.o.+@+@+@+@Z+W+,@;@;@;@;@,@>+'@k.*@*@a.s.p.+@+@+@+@m.v.)@;@;@;@;@-@!@#+#+*@*@a.s.p.",
"% * * * *@y.y.4.;@;@;@;@;@;@~@{@]@]@^@/@3+* * * (@w.m..@;@;@;@;@;@;@~@_@]@]@:@<@_ * * * #+y.Y+[@;@;@;@;@;@}@3 |@]@]@4 1@* * * * ",
"2@<+> 3@/@4@5@{@++3 ~@3 6@7@]@]@]@]@]@]@]@4 8@> /@{@9@{@++3 ~@3 6@7@]@]@]@]@]@]@]@{@0@8@/@a@b {@b@~@~@3 6@7@]@]@]@]@]@]@]@c@a@^+",
"~ ~ + 1.% <.4 d@e@e@f@d@g@]@]@]@]@]@^@h@+ ~ n.= <.<.0 a i@e@j@k@]@]@]@]@]@]@]@l@m@+ q.7+<.<.<.^ b n@o@p@]@]@]@]@]@]@]@]@f q@#+_ ",
"n.= <.<.<.<.<.<.^+p@r@e@s@i@p@]@<+t@g.} ) >+<.<.<.<.<.<.<.`.u@r@r@d@4@]@]@v@L [.. 8.<.<.<.<.<.<.<.<.e w@x@y@5@]@]@7@v@7+: % <.<.",
"<.<.<.<.<.<.<.<.<.<.<.k 0@0@0@<.8.@+<.<.<.<.<.<.<.<.<.<.<.<.<.<./@0@0@0@@+8.<.<.<.<.<.<.<.<.<.<.<.<.<.<.<.z@0@0@( % <.<.<.<.<.<.",
"<.<.<.<.<.<.<.<.<.<.<.<.<.<.<.<.<.<.<.<.<.<.<.<.<.<.<.<.<.<.<.<.<.<.<.<.<.<.<.<.<.<.<.<.<.<.<.<.<.<.<.<.<.<.<.<.<.<.<.<.<.<.<.<.",
"<.<.<.<.<.<.<.0 0@++++0@0@/@k ^ 0 <.<.<.<.<.<.<.<.<.<.<.<.<.7+d t ( 0@A@|@_@++0@0 <.<.<.<.<.<.<.<.% = : d.: #+<.4 O+|@|@|@O+A@z@",
"#.+.j.$ % 0 a ]@a > @+@+@+@+@+B@L | +.#.#.+.. d % <.<.8.. C@: @+@+@+@+B@L [ ( 5 k ; : = t <.<.>+{ .+@ @ @ D@E@7+< 9 c 5 5 n e o ",
"F@~ [.O = ( /@t @+@+@+@+l ( > _ t <.>+>+1.+.} } b.+ %+) t@@+@+@+@+E@: - 1 _ & 0@a a n h O { + @ @ .++ ) 7+E@| + | 1.8.`.f+f+o 4 ",
"1 ) + + {.6.G@Y.H@I@%+>+0 <.<.<.<.<.<.<.<.<.d A -.J@G@Y.K@$+) 2+%+[ <.<.<.<.<.<.<.<.<.>++ J@G@Y.L@! %+2+A [.. _ <.<.<.<.<.<.<.>+",
"<.8.| M@N@R.O@N@L.P@~ # 7+<.<.<.<.<.<.<.<.>+) g.Q@R@N@O@R.N@3.# >+<.<.<.<.<.<.<.<.7+n.~ ~ @ M@G@N@O@L.~ 1.% <.<.<.<.<.<.<.1.[.~ ",
"{ g.~ ~ ~ ~ ~ ~ ~ ~ ~ } S@d.>+t t 1 = : n.~ ~ ~ ~ ~ ~ ~ ~ ~ ~ ~ ~ # : 1 t ( <.>+q.g.~ ~ ~ ~ ~ ~ ~ ~ ~ ~ g.n.#+7+1 1 1.. # # { { ",
"~ ~ ~ ~ ~ ~ ~ ~ } . 7+>+>+>+>+>+>+1 : + ~ ~ ~ ~ ~ ~ ~ ~ ~ ~ ~ ~ T@{ *@>+>+>+>+>+>+>+q@{ T@~ ~ ~ ~ ~ ~ ~ ~ ~ ~ ~ ~ + 8 1 >+>+>+>+",
"~ ~ ~ ~ ~ ~ + : >+>+>+>+>+>+>+>+>+>+>+>+'@# ~ ~ ~ ~ ~ ~ ~ ~ b.q.7+>+>+>+>+>+>+>+>+>+>+>+7+) b.~ ~ ~ ~ ~ ~ ~ ~ u.'@>+>+>+>+>+>+>+",
"q.{ { | 8 7+>+>+>+>+>+>+>+>+>+>+>+>+>+>+>+>+7+: | { { { . '@>+>+>+>+>+>+>+>+>+>+>+>+>+>+>+>+>+'@. { { { | : 7+>+>+>+>+>+>+>+>+>+",
"U@/@@+>+>+>+>+>+]+. { # # n.: 3@U@V@V@U@v@8.>+>+>+>+>+>+>+>+>+>+'@: ]+<.1@W@v@8@8.>+>+>+>+>+>+>+>+>+>+>+@+8@U@V@<+X@7+| # ) : 1 ",
"u@u@Y@V@t >+8 } T.T.T.T.! q@8.>+@+v@Z@/+`@`@l@> >+>+>+>+>+1 |  #'@X@/@W@8.>+1 * .#W@+#>+>+>+>+>+>+>+8.U@Y@@#l@^+/@1@>+>+q.Q.R@K.",
"##u@u@$#%#&#*#) ) ) *#E@*@s.m.m.m.m.s.!@W@l@=#u@-#;#>#W@>+,#B@/@/@t '#m.m.m.m.m.m.m.)#&#^+>#>#>#!#%#u@##~#/@X@1 r.m.m.m.m.m.b.{#",
"a.(@>+1@/@/@/@/@X@8.(@m.m.m.m.m.m.m.m.m.m.]#a.]++#^+/@/@/@/@1@* r.m.m.m.m.m.m.m.m.m.m.m.s.!@W@`.`.`./@/@&#!@s.m.m.m.m.m.m.m.m.m.",
"* '#m.m.m.Y+r.]#m.m.m.m.m.m.m.m.]#(@_ .#^#1@^#% 1 #@m.r.j.m.m.m.m.m.m.m.m.m.m.m.Y+/#_ ^#^#^#^#8.1 '#s.m.m.m.m.m.m.m.m.m.m.m.m.m.",
"z@z@<@/#]#m.m.m.m.m.m.m.m.m.s.1 (#z@z@z@z@z@z@z@z@z@.#(@m.m.m.m.m.m.m.m.m.m.r._ z@z@z@z@z@z@z@z@z@z@3+#@m.m.m.m.m.m.m.m.m.m.k..#",
"z@z@z@z@X@* (@r.m.w._#F.F.u.a.k.* 1@:#<#0@z@z@z@z@z@z@z@<@!@k.s.m.m.x.T@T@m.1 1 >+8.% z@z@z@z@z@z@z@z@z@.#!@a.]#m.m.[#u.| '@1 (@",
"[+~#z@z@z@z@z@<@/#s.s.s.s.*@/@{@a@A@A@|@}#i@##0@z@z@z@z@z@z@z@/@>+r.j.7+X@A@:@7@7@7@{@`.(#/@z@z@z@z@z@z@z@z@1@8.t /@c@7@7@7@7@7@",
"`.4 a e <@_ (@s.s.s.j.1 :#A@8.f.a.a.a.a.f.1@|#n@=#:#z@z@(#t !@j.m.y.a.a.a.a.a.#+8.4 7@7@7@~#/@.#(#z@z@.#. 1#F.n.a.a.#+_ 4 7@7@7@",
"a.a.a.a.* 0 1@X@/@4 a@0@1 a.a.a.a.a.a.a.a.a.a.1 2#{@a@`.X@1@8./#a.a.a.a.a.a.a.a.a.a.1 ^+c@7@7@7@`._ q.T.+ j.a.a.a.a.a.a.a.7+/@c@",
"#+a.a.a.a.a.a.a.#+a.a.a.a.a.a.a.a.a.a.a.$ $ $ a.a.a.a.#+a.a.a.a.a.a.a.a.a.a.a.a.a.a.a.$ $ $ #+a.a.a.a.a.a.a.a.a.a.a.a.a.a.a.a.a.",
"3#(#% 4.a.a.a.$ 8.> ( > 8.$ a.a.f._ 4#3#3#3#3#3#(#8.$ f.@+<.( > t = a.a.a.a.a.$ 8.(#3#3#3#3#3#(#X@0 ^ 0 <.!@a.a.a.a.a.a.a.a.4.% "};
