/* XPM */
static char * C_xpm[] = {
"64 64 292 2",
"  	c #78C273",
". 	c #76BF71",
"+ 	c #63A15F",
"@ 	c #4D7F4A",
"# 	c #385F35",
"$ 	c #244022",
"% 	c #385F36",
"& 	c #62A05E",
"* 	c #76BE71",
"= 	c #74BC70",
"- 	c #52874F",
"; 	c #162A15",
"> 	c #191921",
", 	c #49496B",
"' 	c #59598B",
") 	c #5A5B95",
"! 	c #595A94",
"~ 	c #5E5E8A",
"{ 	c #48486A",
"] 	c #171720",
"^ 	c #112310",
"/ 	c #4E814B",
"( 	c #72B96E",
"_ 	c #1E361C",
": 	c #313145",
"< 	c #616298",
"[ 	c #7374BD",
"} 	c #7374C2",
"| 	c #66679C",
"1 	c #323351",
"2 	c #112210",
"3 	c #599255",
"4 	c #78C173",
"5 	c #77C072",
"6 	c #4C7D48",
"7 	c #0F0F0F",
"8 	c #5B5B8A",
"9 	c #7273BE",
"0 	c #7778C2",
"a 	c #606197",
"b 	c #1B1B2B",
"c 	c #3C663A",
"d 	c #74BB6F",
"e 	c #3E683B",
"f 	c #2A2B3A",
"g 	c #6B6CA9",
"h 	c #7071B4",
"i 	c #3D3E56",
"j 	c #2A4828",
"k 	c #70B66B",
"l 	c #3C653A",
"m 	c #3D3D4B",
"n 	c #7576BE",
"o 	c #464669",
"p 	c #213A1F",
"q 	c #70B66C",
"r 	c #426F3F",
"s 	c #2C2C3F",
"t 	c #7576B7",
"u 	c #7172BE",
"v 	c #474768",
"w 	c #2B4A28",
"x 	c #73BB6E",
"y 	c #548A50",
"z 	c #23232A",
"A 	c #6C6DAF",
"B 	c #7475BD",
"C 	c #3D3E57",
"D 	c #396036",
"E 	c #77C172",
"F 	c #68A963",
"G 	c #000000",
"H 	c #6B6CA2",
"I 	c #7172B6",
"J 	c #252533",
"K 	c #52864E",
"L 	c #75BD70",
"M 	c #223C20",
"N 	c #54547F",
"O 	c #696AA3",
"P 	c #6AAC65",
"Q 	c #4B7D48",
"R 	c #303048",
"S 	c #4C4C76",
"T 	c #2B4B29",
"U 	c #6CAF67",
"V 	c #010401",
"W 	c #6A6BA6",
"X 	c #7475BB",
"Y 	c #222232",
"Z 	c #4C4C70",
"` 	c #5B5C92",
" .	c #1B3119",
"..	c #66A762",
"+.	c #050507",
"@.	c #6E6FB3",
"#.	c #7273BF",
"$.	c #292A40",
"%.	c #538950",
"&.	c #375E35",
"*.	c #4B4B77",
"=.	c #5E5E96",
"-.	c #182E17",
";.	c #75BE70",
">.	c #010100",
",.	c #6D6EB1",
"'.	c #7475BE",
").	c #232335",
"!.	c #5A9457",
"~.	c #457342",
"{.	c #454569",
"].	c #5D5E8A",
"^.	c #73BB6F",
"/.	c #071206",
"(.	c #6969A4",
"_.	c #7273B5",
":.	c #050404",
"<.	c #6AAC66",
"[.	c #5A9456",
"}.	c #2D2D3D",
"|.	c #7576C1",
"1.	c #434460",
"2.	c #355932",
"3.	c #595A85",
"4.	c #606196",
"5.	c #1C331A",
"6.	c #72B96D",
"7.	c #6D6DAC",
"8.	c #7071B7",
"9.	c #010101",
"0.	c #6BAE67",
"a.	c #5D9859",
"b.	c #30303A",
"c.	c #7475C1",
"d.	c #3A3A52",
"e.	c #558C52",
"f.	c #447141",
"g.	c #4C4D76",
"h.	c #5A5A85",
"i.	c #396137",
"j.	c #192F18",
"k.	c #65669B",
"l.	c #6667A1",
"m.	c #061106",
"n.	c #70B56B",
"o.	c #7071B3",
"p.	c #6DB168",
"q.	c #26262B",
"r.	c #7676C2",
"s.	c #7475C2",
"t.	c #282833",
"u.	c #609C5C",
"v.	c #444460",
"w.	c #484965",
"x.	c #437040",
"y.	c #4E4E7B",
"z.	c #4C4C7A",
"A.	c #325630",
"B.	c #5C5C8F",
"C.	c #5D5E8D",
"D.	c #355A33",
"E.	c #1E371D",
"F.	c #61629A",
"G.	c #5F6098",
"H.	c #233F22",
"I.	c #6A6AA3",
"J.	c #60619D",
"K.	c #091608",
"L.	c #7475AE",
"M.	c #7374A9",
"N.	c #6566AB",
"O.	c #8081B1",
"P.	c #7071AD",
"Q.	c #7E7EAF",
"R.	c #1D351C",
"S.	c #5F5F9A",
"T.	c #5E5F98",
"U.	c #1F381D",
"V.	c #31552F",
"W.	c #5B5B8F",
"X.	c #5A5B8A",
"Y.	c #467443",
"Z.	c #51517B",
"`.	c #4E4F74",
" +	c #4A7A46",
".+	c #568D52",
"++	c #3E3E59",
"@+	c #3B3B4D",
"#+	c #65A561",
"$+	c #1B1B19",
"%+	c #7374BF",
"&+	c #7576BB",
"*+	c #69AB65",
"=+	c #74BC6F",
"-+	c #000100",
";+	c #6A6BAA",
">+	c #6768A3",
",+	c #061005",
"'+	c #2E502C",
")+	c #595A8A",
"!+	c #51527C",
"~+	c #558C51",
"{+	c #38384F",
"]+	c #7677C1",
"^+	c #242437",
"/+	c #6FB46A",
"(+	c #6B6CAE",
"_+	c #6767A3",
":+	c #030903",
"<+	c #55557E",
"[+	c #4B4B6A",
"}+	c #629F5E",
"|+	c #1C1C1F",
"1+	c #7576BA",
"2+	c #6D6EAF",
"3+	c #020101",
"4+	c #6BAE66",
"5+	c #555681",
"6+	c #494A6B",
"7+	c #64A460",
"8+	c #151515",
"9+	c #6E6FB1",
"0+	c #6868A4",
"a+	c #010200",
"b+	c #6DB068",
"c+	c #3D673A",
"d+	c #3C3D5A",
"e+	c #7475C0",
"f+	c #7374BC",
"g+	c #343445",
"h+	c #72B86D",
"i+	c #1A2F18",
"j+	c #575885",
"k+	c #7374C1",
"l+	c #4E4E71",
"m+	c #2A4928",
"n+	c #030B03",
"o+	c #64649A",
"p+	c #5B5B89",
"q+	c #132411",
"r+	c #5C9758",
"s+	c #0F0F0E",
"t+	c #696A9E",
"u+	c #60608F",
"v+	c #040C03",
"w+	c #5C9658",
"x+	c #020103",
"y+	c #606190",
"z+	c #535381",
"A+	c #060F05",
"B+	c #629F5D",
"C+	c #132512",
"D+	c #6F70B5",
"E+	c #444462",
"F+	c #172C16",
"G+	c #67A863",
"H+	c #6EB36A",
"I+	c #335630",
"J+	c #2A2A30",
"K+	c #595A8E",
"L+	c #7273BC",
"M+	c #7373BC",
"N+	c #61618D",
"O+	c #1E1F2B",
"P+	c #6A6AAA",
"Q+	c #7777C1",
"R+	c #6C6CAB",
"S+	c #585982",
"T+	c #1C1C29",
"U+	c #213B1F",
"V+	c #5E9A5A",
"W+	c #5F9B5B",
"X+	c #020702",
"Y+	c #1F1F26",
"Z+	c #464765",
"`+	c #51517E",
" @	c #5F6092",
".@	c #5B5B95",
"+@	c #5F5F93",
"@@	c #515281",
"#@	c #49496A",
"$@	c #21212E",
"%@	c #365C34",
"&@	c #73BA6E",
"*@	c #50854D",
"=@	c #416C3E",
"-@	c #335731",
";@	c #243F22",
">@	c #31542E",
",@	c #3E693C",
"'@	c #4E814A",
")@	c #619E5D",
"                                                                                                                                ",
"                                                                                                                                ",
"                                                                                                                                ",
"                                                      . + @ # $ $ % @ & *                                                       ",
"                                                  = - ; > , ' ) ! ~ { ] ^ / (                                                   ",
"                                                & _ : < [ } } } } } } [ | 1 2 3 4                                               ",
"                                            5 6 7 8 9 } } } } } } } } } } 0 a b c d                                             ",
"                                          . e f g } } } } } } } } } } } } } } h i j k                                           ",
"                                        . l m h } } } } } } } } } } } } } } } } n o p q                                         ",
"                                        r s t } } } } } } } } } } } } } } } } } } u v w x                                       ",
"                                      y z A } } } } } } } } } } } } } } } } } } } } B C D E                                     ",
"                                    F G H } } } } } } } } } } } } } } } } } } } } } } I J K                                     ",
"                                  L M N } } } } } } } } } } } } } } } } } } } } } } } } O G P                                   ",
"                                  Q R n } } } } } } } } } } } } } } } } } } } } } } } } } S T 5                                 ",
"                                U V W } } } } } } } } } } } } } } } } } } } } } } } } } } X Y 3                                 ",
"                                D Z } } } } } } } } } } } } } } } } } } } } } } } } } } } } `  .=                               ",
"                              ..+.@.} } } } } } } } } } } } } } } } } } } } } } } } } } } } #.$.%.                              ",
"                              &.*.} } } } } } } } } } } } } } } } } } } } } } } } } } } } } } =.-.;.                            ",
"                            P >.,.} } } } } } } } } } } } } } } } } } } } } } } } } } } } } } '.).!.                            ",
"                            ~.{.} } } } } } } } } } } } } } } } } } } } } } } } } } } } } } } } ].T                             ",
"                          ^./.(.} } } } } } } } } } } } } } } } } } } } } } } } } } } } } } } } _.:.<.                          ",
"                          [.}.|.} } } } } } } } } } } } } } } } } } } } } } } } } } } } } } } } } 1.@                           ",
"                          2.3.} } } } } } } } } } } } } } } } } } } } } } } } } } } } } } } } } } 4.5.                          ",
"                        6.G 7.} } } } } } } } } } } } } } } } } } } } } } } } } } } } } } } } } } 8.9.0.                        ",
"                        a.b.c.} } } } } } } } } } } } } } } } } } } } } } } } } } } } } } } } } } } d.e.                        ",
"                        f.g.} } } } } } } } } } } } } } } } } } } } } } } } } } } } } } } } } } } } h.i.                        ",
"                        j.k.} } } } } } } } } } } } } } } } } } } } } } } } } } } } } } } } } } } } l.m.E                       ",
"                      n.G o.} } } } } } } } } } } } } } } } } } } } } } } } } } } } } } } } } } } } I G p.                      ",
"                      & q.r.} } } } } } } } } } } } } } } } } } } } } } } } } } } } } } } } } } } } s.t.u.                      ",
"                      y v.} } } } } } } } } } } } } } } } } } } } } } } } } } } } } } } } } } } } } } w.-                       ",
"                      x.y.} } } } } } } } } } } } } } } } } } } } } } } } } } } } } } } } } } } } } } z.f.                      ",
"                      A.B.} } } } } } } } } } } } } } } } } } } } } } } } } } } } } } } } } } } } } } C.D.                      ",
"                      E.F.} } } } } } } } } } } } } } } } } } } } } } } } } } } } } } } } } } } } } } G.H.                      ",
"                      G I.} } } } } } } } } } } } } } } } } } } } } } } } } } } } } } } } } } } } } } J.K.                      ",
"                      G L.} } } } } } } } } } } } } } } } } } } } } } } } } } } } } } } } } } } } } } M.G                       ",
"                    E G N.} } } } } } } } } } } } } } } } } } } } } } } } } } } } } } } } } } } } } } O.G                       ",
"                      G P.} } } } } } } } } } } } } } } } } } } } } } } } } } } } } } } } } } } } } } Q.G                       ",
"                      G O } } } } } } } } } } } } } } } } } } } } } } } } } } } } } } } } } } } } } } O G                       ",
"                      R.S.} } } } } } } } } } } } } } } } } } } } } } } } } } } } } } } } } } } } } } T.U.                      ",
"                      V.W.} } } } } } } } } } } } } } } } } } } } } } } } } } } } } } } } } } } } } } X.D.                      ",
"                      Y.Z.} } } } } } } } } } } } } } } } } } } } } } } } } } } } } } } } } } } } } } `. +                      ",
"                      .+++} } } } } } } } } } } } } } } } } } } } } } } } } } } } } } } } } } } } } } @+[.                      ",
"                      #+$+%+} } } } } } } } } } } } } } } } } } } } } } } } } } } } } } } } } } } } &+>.*+                      ",
"                      =+-+;+} } } } } } } } } } } } } } } } } } } } } } } } } } } } } } } } } } } } >+,+5                       ",
"                        '+)+} } } } } } } } } } } } } } } } } } } } } } } } } } } } } } } } } } } } !+e                         ",
"                        ~+{+s.} } } } } } } } } } } } } } } } } } } } } } } } } } } } } } } } } } ]+^+a.                        ",
"                        /+G (+} } } } } } } } } } } } } } } } } } } } } } } } } } } } } } } } } } _+:+=+                        ",
"                          &.<+} } } } } } } } } } } } } } } } } } } } } } } } } } } } } } } } } } [+~.                          ",
"                          }+|+1+} } } } } } } } } } } } } } } } } } } } } } } } } } } } } } } } 2+3+4+                          ",
"                          4 j 5+} } } } } } } } } } } } } } } } } } } } } } } } } } } } } } } } 6+e                             ",
"                            7+8+9+} } } } } } } } } } } } } } } } } } } } } } } } } } } } } } 0+a+b+                            ",
"                              c+d+e+} } } } } } } } } } } } } } } } } } } } } } } } } } } } f+g+@                               ",
"                              h+i+j+} } } } } } } } } } } } } } } } } } } } } } } } } } } k+l+m+*                               ",
"                                ..n+o+} } } } } } } } } } } } } } } } } } } } } } } } } } p+q+p.                                ",
"                                  r+s+t+} } } } } } } } } } } } } } } } } } } } } } } } u+v+#+                                  ",
"                                    w+x+y+k+} } } } } } } } } } } } } } } } } } } } |.z+A+&                                     ",
"                                      B+C+, 8.} } } } } } } } } } } } } } } } } } D+E+F+G+                                      ",
"                                        H+I+J+K+L+} } } } } } } } } } } } } } M+N+> % q                                         ",
"                                          E r+R.O+N P+e+} } } } } } } } Q+R+S+T+U+V+                                            ",
"                                              5 W+i.X+Y+Z+`+ @) .@+@@@#@$@G %@W+5                                               ",
"                                                    &@B+*@=@-@$ ;@>@,@'@)@6.                                                    ",
"                                                                                                                                ",
"                                                                                                                                ",
"                                                                                                                                "};
