/* XPM */
static char * c_xpm[] = {
"64 64 208 2",
"  	c #78C273",
". 	c #77C072",
"+ 	c #67A762",
"@ 	c #558C52",
"# 	c #4C7E49",
"$ 	c #568D52",
"% 	c #77C172",
"& 	c #5B9557",
"* 	c #294328",
"= 	c #888332",
"- 	c #BAB335",
"; 	c #C9C137",
"> 	c #C9C133",
", 	c #BAB333",
"' 	c #898330",
") 	c #294028",
"! 	c #589054",
"~ 	c #76BE71",
"{ 	c #6FB46B",
"] 	c #355A32",
"^ 	c #928D2B",
"/ 	c #E8DF38",
"( 	c #F9EF33",
"_ 	c #EBE244",
": 	c #A49D26",
"< 	c #2B4A29",
"[ 	c #6AAD66",
"} 	c #6AAC65",
"| 	c #3A482B",
"1 	c #CBC346",
"2 	c #D9D139",
"3 	c #535534",
"4 	c #609D5C",
"5 	c #6AAC66",
"6 	c #444A29",
"7 	c #DED536",
"8 	c #EAE139",
"9 	c #615E17",
"0 	c #5F9B5B",
"a 	c #70B66B",
"b 	c #384729",
"c 	c #DCD439",
"d 	c #EBE236",
"e 	c #5B5919",
"f 	c #76C072",
"g 	c #CAC240",
"h 	c #E2D940",
"i 	c #3A4728",
"j 	c #71B76C",
"k 	c #548950",
"l 	c #9F982C",
"m 	c #C0B93A",
"n 	c #3F693C",
"o 	c #6EB269",
"p 	c #565538",
"q 	c #F2E93E",
"r 	c #7E7926",
"s 	c #3E683B",
"t 	c #CBC33A",
"u 	c #E4DB3F",
"v 	c #2A4628",
"w 	c #76BF71",
"x 	c #68A964",
"y 	c #716E24",
"z 	c #F9EF37",
"A 	c #9D9730",
"B 	c #5C9658",
"C 	c #3D673B",
"D 	c #D1C93B",
"E 	c #E6DD3A",
"F 	c #294628",
"G 	c #6DB169",
"H 	c #66632F",
"I 	c #F8EE35",
"J 	c #898432",
"K 	c #64A35F",
"L 	c #4F824B",
"M 	c #BDB73C",
"N 	c #426F3F",
"O 	c #263C25",
"P 	c #EFE63F",
"Q 	c #F6EC35",
"R 	c #44442B",
"S 	c #74BC6F",
"T 	c #66A762",
"U 	c #8A8534",
"V 	c #9B952E",
"W 	c #619F5D",
"X 	c #50834C",
"Y 	c #CDC537",
"Z 	c #487845",
"` 	c #2F512D",
" .	c #E7DF48",
"..	c #EDE440",
"+.	c #274425",
"@.	c #74BB6F",
"#.	c #4E4B27",
"$.	c #F9EF35",
"%.	c #5C5821",
"&.	c #72B86D",
"*.	c #67A863",
"=.	c #8E8832",
"-.	c #938D2B",
";.	c #ADA634",
">.	c #AEA733",
",.	c #C4BE2D",
"'.	c #C4BD2C",
").	c #487744",
"!.	c #D5CD48",
"~.	c #D2CA45",
"{.	c #4A7A46",
"].	c #3C6539",
"^.	c #DFD63F",
"/.	c #DDD437",
"(.	c #406B3D",
"_.	c #375C34",
":.	c #E2D92E",
"<.	c #E0D746",
"[.	c #3A6137",
"}.	c #396036",
"|.	c #E0D73B",
"1.	c #DFD744",
"2.	c #3A6238",
"3.	c #447241",
"4.	c #DAD23C",
"5.	c #D8D045",
"6.	c #457242",
"7.	c #4D7F4A",
"8.	c #C8C02F",
"9.	c #C7BF2F",
"0.	c #4E814B",
"a.	c #599356",
"b.	c #B4AD35",
"c.	c #ADA638",
"d.	c #66A662",
"e.	c #928C2A",
"f.	c #888331",
"g.	c #69AA64",
"h.	c #4D4A26",
"i.	c #F9EF36",
"j.	c #F8EE38",
"k.	c #363928",
"l.	c #345932",
"m.	c #E1D840",
"n.	c #D7CF3D",
"o.	c #578F53",
"p.	c #B1AA32",
"q.	c #A29C33",
"r.	c #5D9759",
"s.	c #525128",
"t.	c #F6ED36",
"u.	c #F2E837",
"v.	c #3E4427",
"w.	c #C8C138",
"x.	c #B8B23B",
"y.	c #4D804A",
"z.	c #6DB168",
"A.	c #5D5A17",
"B.	c #F4EA35",
"C.	c #F0E638",
"D.	c #45481E",
"E.	c #71B86D",
"F.	c #ACA638",
"G.	c #99943F",
"H.	c #568E52",
"I.	c #75BE70",
"J.	c #2B4B29",
"K.	c #D5CD3F",
"L.	c #C6BF41",
"M.	c #365B33",
"N.	c #3F471D",
"O.	c #DED539",
"P.	c #D7CE42",
"Q.	c #364A25",
"R.	c #404721",
"S.	c #D5CD3C",
"T.	c #CDC53D",
"U.	c #384925",
"V.	c #2E4D2C",
"W.	c #ACA63B",
"X.	c #F3EA3E",
"Y.	c #F2E93D",
"Z.	c #A39E40",
"`.	c #30522E",
" +	c #70B56B",
".+	c #75BD70",
"++	c #4F834C",
"@+	c #504F21",
"#+	c #BAB330",
"$+	c #EFE534",
"%+	c #EFE636",
"&+	c #B8B236",
"*+	c #4C4D21",
"=+	c #52874E",
"-+	c #273E24",
";+	c #7C782E",
">+	c #AAA330",
",+	c #C5BD37",
"'+	c #C9C136",
")+	c #CAC239",
"!+	c #C6BE29",
"~+	c #ADA637",
"{+	c #807C34",
"]+	c #283C25",
"^+	c #78C173",
"/+	c #6BAD66",
"(+	c #50844D",
"_+	c #4C7D48",
"                                                                                                                                ",
"                                                                                                                                ",
"                                                                                                                                ",
"                                                                                                                                ",
"                                                                                                                                ",
"                                                                                                                                ",
"                                                                                                                                ",
"                                                                                                                                ",
"                                                                                                                                ",
"                                                                                                                                ",
"                                                        . + @ # # $ + .                                                         ",
"                                                    % & * = - ; > , ' ) ! ~                                                     ",
"                                                  { ] ^ / ( ( ( ( ( ( _ : < [                                                   ",
"                                                } | 1 ( ( ( ( ( ( ( ( ( ( 2 3 4                                                 ",
"                                              5 6 7 ( ( ( ( ( ( ( ( ( ( ( ( 8 9 0                                               ",
"                                            a b c ( ( ( ( ( ( ( ( ( ( ( ( ( ( d e +                                             ",
"                                          f ] g ( ( ( ( ( ( ( ( ( ( ( ( ( ( ( ( h i j                                           ",
"                                          k l ( ( ( ( ( ( ( ( ( ( ( ( ( ( ( ( ( ( m n                                           ",
"                                        o p q ( ( ( ( ( ( ( ( ( ( ( ( ( ( ( ( ( ( ( r 4                                         ",
"                                        s t ( ( ( ( ( ( ( ( ( ( ( ( ( ( ( ( ( ( ( ( u v w                                       ",
"                                      x y z ( ( ( ( ( ( ( ( ( ( ( ( ( ( ( ( ( ( ( ( ( A B                                       ",
"                                      C D ( ( ( ( ( ( ( ( ( ( ( ( ( ( ( ( ( ( ( ( ( ( E F %                                     ",
"                                    G H I ( ( ( ( ( ( ( ( ( ( ( ( ( ( ( ( ( ( ( ( ( ( ( J K                                     ",
"                                    L M ( ( ( ( ( ( ( ( ( ( ( ( ( ( ( ( ( ( ( ( ( ( ( ( D N                                     ",
"                                  % O P ( ( ( ( ( ( ( ( ( ( ( ( ( ( ( ( ( ( ( ( ( ( ( ( Q R S                                   ",
"                                  T U ( ( ( ( ( ( ( ( ( ( ( ( ( ( ( ( ( ( ( ( ( ( ( ( ( ( V W                                   ",
"                                  X m ( ( ( ( ( ( ( ( ( ( ( ( ( ( ( ( ( ( ( ( ( ( ( ( ( ( Y Z                                   ",
"                                  `  .( ( ( ( ( ( ( ( ( ( ( ( ( ( ( ( ( ( ( ( ( ( ( ( ( ( ..+.                                  ",
"                                @.#.$.( ( ( ( ( ( ( ( ( ( ( ( ( ( ( ( ( ( ( ( ( ( ( ( ( ( ( %.&.                                ",
"                                *.=.( ( ( ( ( ( ( ( ( ( ( ( ( ( ( ( ( ( ( ( ( ( ( ( ( ( ( ( -.T                                 ",
"                                & ;.( ( ( ( ( ( ( ( ( ( ( ( ( ( ( ( ( ( ( ( ( ( ( ( ( ( ( ( >.&                                 ",
"                                L ,.( ( ( ( ( ( ( ( ( ( ( ( ( ( ( ( ( ( ( ( ( ( ( ( ( ( ( ( '.X                                 ",
"                                ).!.( ( ( ( ( ( ( ( ( ( ( ( ( ( ( ( ( ( ( ( ( ( ( ( ( ( ( ( ~.{.                                ",
"                                ].^.( ( ( ( ( ( ( ( ( ( ( ( ( ( ( ( ( ( ( ( ( ( ( ( ( ( ( ( /.(.                                ",
"                                _.:.( ( ( ( ( ( ( ( ( ( ( ( ( ( ( ( ( ( ( ( ( ( ( ( ( ( ( ( <.[.                                ",
"                                }.|.( ( ( ( ( ( ( ( ( ( ( ( ( ( ( ( ( ( ( ( ( ( ( ( ( ( ( ( 1.2.                                ",
"                                3.4.( ( ( ( ( ( ( ( ( ( ( ( ( ( ( ( ( ( ( ( ( ( ( ( ( ( ( ( 5.6.                                ",
"                                7.8.( ( ( ( ( ( ( ( ( ( ( ( ( ( ( ( ( ( ( ( ( ( ( ( ( ( ( ( 9.0.                                ",
"                                a.b.( ( ( ( ( ( ( ( ( ( ( ( ( ( ( ( ( ( ( ( ( ( ( ( ( ( ( ( c.&                                 ",
"                                d.e.( ( ( ( ( ( ( ( ( ( ( ( ( ( ( ( ( ( ( ( ( ( ( ( ( ( ( ( f.g.                                ",
"                                @.h.i.( ( ( ( ( ( ( ( ( ( ( ( ( ( ( ( ( ( ( ( ( ( ( ( ( ( j.k.~                                 ",
"                                  l.m.( ( ( ( ( ( ( ( ( ( ( ( ( ( ( ( ( ( ( ( ( ( ( ( ( ( n.s                                   ",
"                                  o.p.( ( ( ( ( ( ( ( ( ( ( ( ( ( ( ( ( ( ( ( ( ( ( ( ( ( q.r.                                  ",
"                                  j s.t.( ( ( ( ( ( ( ( ( ( ( ( ( ( ( ( ( ( ( ( ( ( ( ( u.v.S                                   ",
"                                    3.w.( ( ( ( ( ( ( ( ( ( ( ( ( ( ( ( ( ( ( ( ( ( ( ( x.y.                                    ",
"                                    z.A.B.( ( ( ( ( ( ( ( ( ( ( ( ( ( ( ( ( ( ( ( ( ( C.D.E.                                    ",
"                                      y.F.( ( ( ( ( ( ( ( ( ( ( ( ( ( ( ( ( ( ( ( ( ( G.H.                                      ",
"                                      I.J.K.( ( ( ( ( ( ( ( ( ( ( ( ( ( ( ( ( ( ( ( L.M..                                       ",
"                                        G N.O.( ( ( ( ( ( ( ( ( ( ( ( ( ( ( ( ( ( P.Q.j                                         ",
"                                          } R.S.( ( ( ( ( ( ( ( ( ( ( ( ( ( ( ( T.U.z.                                          ",
"                                            z.V.W.X.( ( ( ( ( ( ( ( ( ( ( ( Y.Z.`. +                                            ",
"                                              .+++@+#+$+( ( ( ( ( ( ( ( %+&+*+=+w                                               ",
"                                                   +++-+;+>+,+'+)+!+~+{+]+L a                                                   ",
"                                                      ^+/+r.(+_+_+++B } %                                                       ",
"                                                                                                                                ",
"                                                                                                                                ",
"                                                                                                                                ",
"                                                                                                                                ",
"                                                                                                                                ",
"                                                                                                                                ",
"                                                                                                                                ",
"                                                                                                                                ",
"                                                                                                                                ",
"                                                                                                                                "};
