/* XPM */
static char * Sem título2_xpm[] = {
"64 64 305 2",
"  	c #78C273",
". 	c #7AC375",
"+ 	c #B5AA66",
"@ 	c #C7954D",
"# 	c #A3B875",
"$ 	c #ACBA7E",
"% 	c #EC6802",
"& 	c #F47803",
"* 	c #EB6606",
"= 	c #C9A269",
"- 	c #84C47B",
"; 	c #7BC376",
"> 	c #B1A65B",
", 	c #F07202",
"' 	c #FF8E04",
") 	c #FB8604",
"! 	c #ED6902",
"~ 	c #D98848",
"{ 	c #94BD74",
"] 	c #79C274",
"^ 	c #92BC6E",
"/ 	c #A5A94D",
"( 	c #B1A343",
"_ 	c #ACA43D",
": 	c #A1AE56",
"< 	c #87C070",
"[ 	c #98BB74",
"} 	c #EB6501",
"| 	c #FB8704",
"1 	c #FD8A04",
"2 	c #F17303",
"3 	c #E76A19",
"4 	c #C89C5A",
"5 	c #9FB261",
"6 	c #B19E17",
"7 	c #E0D42A",
"8 	c #F5EA31",
"9 	c #F2E82F",
"0 	c #CFC022",
"a 	c #AF9F34",
"b 	c #8BBF72",
"c 	c #81C378",
"d 	c #E39060",
"e 	c #EC6701",
"f 	c #F88104",
"g 	c #FC8804",
"h 	c #EF7B04",
"i 	c #B19711",
"j 	c #EADE2E",
"k 	c #FCF233",
"l 	c #EEE32F",
"m 	c #F5EB32",
"n 	c #FFF534",
"o 	c #D4C724",
"p 	c #A8A84A",
"q 	c #CC924D",
"r 	c #EC6902",
"s 	c #F07102",
"t 	c #ED6A02",
"u 	c #F47804",
"v 	c #F88204",
"w 	c #E18E0A",
"x 	c #C3B31E",
"y 	c #FAF032",
"z 	c #C7BC76",
"A 	c #CECAB4",
"B 	c #CDC49C",
"C 	c #E8DC2D",
"D 	c #FDF334",
"E 	c #B7A518",
"F 	c #88BF71",
"G 	c #DA884A",
"H 	c #F37603",
"I 	c #F67D03",
"J 	c #F27503",
"K 	c #D0870A",
"L 	c #E4D82A",
"M 	c #ACA58A",
"N 	c #676767",
"O 	c #FAF9F5",
"P 	c #CDBD22",
"Q 	c #C8B821",
"R 	c #9DC17D",
"S 	c #ADB371",
"T 	c #EA6B24",
"U 	c #F07303",
"V 	c #FB8804",
"W 	c #FC8904",
"X 	c #DD8E0B",
"Y 	c #D2C425",
"Z 	c #EADF2D",
"` 	c #D9D2B8",
" .	c #FAFAFA",
"..	c #EFECE1",
"+.	c #D4C625",
"@.	c #C1B11C",
"#.	c #91C075",
"$.	c #98BB72",
"%.	c #C69C5B",
"&.	c #DC8444",
"*.	c #E97531",
"=.	c #EB6612",
"-.	c #EA6712",
";.	c #DD8235",
">.	c #C5B51F",
",.	c #FFF535",
"'.	c #D8CB2F",
").	c #D5CA88",
"!.	c #D1C44E",
"~.	c #F9EF32",
"{.	c #F5EB31",
"].	c #AE9F31",
"^.	c #83C579",
"/.	c #85C276",
"(.	c #B8A61A",
"_.	c #CEC024",
":.	c #9CB563",
"<.	c #B1A13C",
"[.	c #B29F24",
"}.	c #84C47A",
"|.	c #AAA442",
"1.	c #F7EC31",
"2.	c #B19E30",
"3.	c #80C479",
"4.	c #9DBB70",
"5.	c #98BB6D",
"6.	c #B19F2F",
"7.	c #B19E15",
"8.	c #8EBA68",
"9.	c #8DBD6E",
"0.	c #A8AC54",
"a.	c #B9A819",
"b.	c #A5A642",
"c.	c #8EBC6B",
"d.	c #CABB21",
"e.	c #D5C725",
"f.	c #ABA544",
"g.	c #81C479",
"h.	c #8CBB68",
"i.	c #9AB059",
"j.	c #ADA546",
"k.	c #BDAC1B",
"l.	c #E5D92B",
"m.	c #F1E531",
"n.	c #A4A239",
"o.	c #AAA84A",
"p.	c #EDE12E",
"q.	c #FEF434",
"r.	c #D8CB27",
"s.	c #B1A32D",
"t.	c #A0AA4B",
"u.	c #9CB158",
"v.	c #9FB45C",
"w.	c #9CAE55",
"x.	c #A8AF5B",
"y.	c #ACA648",
"z.	c #AE9C20",
"A.	c #BDAC1A",
"B.	c #D7C926",
"C.	c #F1E630",
"D.	c #A4A237",
"E.	c #9AB969",
"F.	c #C6B61F",
"G.	c #F6EC31",
"H.	c #FCF234",
"I.	c #EDE12D",
"J.	c #E2D62A",
"K.	c #E2D62B",
"L.	c #E4D829",
"M.	c #F0E52F",
"N.	c #FBF133",
"O.	c #ECE02E",
"P.	c #A7A847",
"Q.	c #84C57A",
"R.	c #ACA031",
"S.	c #F1E730",
"T.	c #E9DD2C",
"U.	c #BEAD1B",
"V.	c #F7ED32",
"W.	c #DED128",
"X.	c #A3B05D",
"Y.	c #97B96C",
"Z.	c #D1C324",
"`.	c #BBAB19",
" +	c #EDE22F",
".+	c #E7DB2D",
"++	c #BCAB1A",
"@+	c #C9BA22",
"#+	c #97B767",
"$+	c #A1AD51",
"%+	c #EBDF2E",
"&+	c #BCAA1C",
"*+	c #F0E530",
"=+	c #CEC022",
"-+	c #FAEF32",
";+	c #B09D14",
">+	c #F5EA30",
",+	c #AF9B13",
"'+	c #84BF70",
")+	c #A8A849",
"!+	c #F1E62F",
"~+	c #BBA91B",
"{+	c #D8CA27",
"]+	c #BBAA19",
"^+	c #C4B41D",
"/+	c #C1B11D",
"(+	c #ECE02D",
"_+	c #F9EF33",
":+	c #B09C14",
"<+	c #F7ED31",
"[+	c #DACD27",
"}+	c #ABA647",
"|+	c #A3AB52",
"1+	c #E7DB2C",
"2+	c #F8ED32",
"3+	c #DED12A",
"4+	c #ECE12F",
"5+	c #B9A719",
"6+	c #C2B21D",
"7+	c #BFAF1D",
"8+	c #B29F15",
"9+	c #D8CB26",
"0+	c #B3A015",
"a+	c #94B868",
"b+	c #94B764",
"c+	c #C8B91F",
"d+	c #F8EE33",
"e+	c #E8DC2C",
"f+	c #AAAC56",
"g+	c #7EC377",
"h+	c #AAA646",
"i+	c #E5D92C",
"j+	c #FDF333",
"k+	c #AAA84D",
"l+	c #7CC172",
"m+	c #82BF6F",
"n+	c #ACA33C",
"o+	c #FAF033",
"p+	c #FEE730",
"q+	c #FEEE32",
"r+	c #EEE22E",
"s+	c #C0B01D",
"t+	c #A4B057",
"u+	c #7EC274",
"v+	c #88C57D",
"w+	c #A2B35F",
"x+	c #B0A232",
"y+	c #CCBD21",
"z+	c #E1D529",
"A+	c #F0E430",
"B+	c #FCAC16",
"C+	c #F9B81B",
"D+	c #EBE02E",
"E+	c #BEAE1B",
"F+	c #A7A848",
"G+	c #8FBD6E",
"H+	c #7EC375",
"I+	c #96BD72",
"J+	c #9CB15C",
"K+	c #A6AB50",
"L+	c #B79A1B",
"M+	c #B29913",
"N+	c #AD9A11",
"O+	c #B19C13",
"P+	c #B19C11",
"Q+	c #AE9A11",
"R+	c #EF9109",
"S+	c #E5972D",
"T+	c #A3AA4D",
"U+	c #9AB461",
"V+	c #8AC175",
"W+	c #EC9A35",
"X+	c #D7A64E",
"Y+	c #77C273",
"Z+	c #80C57A",
"`+	c #E8A046",
" @	c #E5AB62",
".@	c #D6A54A",
"+@	c #E4A64A",
"@@	c #D9A752",
"#@	c #92BE6F",
"$@	c #9FBA69",
"%@	c #88C478",
"&@	c #F09D46",
"*@	c #8FC47A",
"=@	c #90C276",
"-@	c #E5A146",
";@	c #DDA855",
">@	c #EC9B3B",
",@	c #FE8E04",
"'@	c #D5A74E",
")@	c #E99E43",
"!@	c #FF8E0B",
"~@	c #FE8E05",
"{@	c #E5A54E",
"]@	c #A2BE73",
"^@	c #BEB05B",
"/@	c #BDAF5A",
"(@	c #BEB363",
"_@	c #8EC072",
":@	c #B1BA6F",
"<@	c #D6AA56",
"[@	c #D4A950",
"}@	c #C8B163",
"|@	c #9FBB6B",
"                                                                                                                                ",
"                                                                                                                                ",
"                                                                                                                                ",
"                                                                                                                                ",
"                                                                                                                                ",
"                                                                                                                                ",
"                                                                                                                                ",
"                                                                                                                                ",
"                                                                                                                                ",
"                                                                                                                                ",
"                                                                                                                                ",
"                                                                                                                                ",
"                                                                                                                                ",
"                                                                                                                                ",
"                                                                                                                                ",
"                                                                                                                                ",
"                                  . + @ #                                                                                       ",
"                                  $ % & * = -             . ;                                                                   ",
"                                  > , ' ) ! ~ { ]   ^ / ( _ : <                                                                 ",
"                                  [ } | ' 1 2 3 4 5 6 7 8 9 0 a b                                                               ",
"                                  c d e f ' ' g h i j k l m n o p ]                                                             ",
"                                  q r s r t u v w x y z A B C D E F                                                             ",
"                                  G H ' ' | I J K o L M N O P n Q R                                                             ",
"                                  S T U v V 1 W X Y Z `  ...+.n @.#.                                                            ",
"                                    $.%.&.*.=.-.;.>.,.'.).!.~.{.].^.                                                            ",
"                                                /.(.n n n n n _.:.                                                              ",
"                                                  <.D n n n n [.}.                                                              ",
"                                                  |.1.n n n k 2.3.                          4.5.                                ",
"                                                ] 6.D n n n n 7.8.                    . 9.0.a.b.                                ",
"                                                c.d.n n n n n e.f./.          ] g.h.i.j.k.l.m.n.                                ",
"                                              ; o.p.n n n n n q.r.s.t.u.v.w.x.y.z.A.B.l n n C.D.                                ",
"                                              E.F.n n n n n n G.n H.I.J.K.K.L.M.N.n n n n n O.P.                                ",
"                                            Q.R.S.n n n n n T.U.n n n n n V.{.n n n n n n n W.X.                                ",
"                                            Y.Z.n n n n n n `. +n n n n n .+++n n n n n n n @+#+                                ",
"                                            $+%+n n n n n ~.&+q.*+=+n -+n D ;+>+n n n n n ~.,+'+                                ",
"                                            )+!+n n n n n q.~+{+]+^+n /+(+_+:+<+n n n n n [+}+]                                 ",
"                                            |+1+n n n n n n 2+3+4+5+6+7+8+7.9+n n n n n _+0+a+                                  ",
"                                            b+c+n n n n n n n n n d+e+k <+1.n n n n n q.c+f+.                                   ",
"                                            g+h+i+n n n n n n n n n n n n n n n n n j+Z.k+l+                                    ",
"                                              m+n+r.o+n n n n n n n n n p+q+n n n r+s+t+u+                                      ",
"                                                v+w+x+y+z+A+d+n n n n q.B+C+D+[+E+F+G+                                          ",
"                                                    H+I+J+K+L+M+N+O+P+Q+R+S+T+U+V+                                              ",
"                                                            W+X+Y+  Z+Y+`+ @                                                    ",
"                                                            W+.@        +@@@                                                    ",
"                                                      #@$@%@&@.@  *@=@] -@;@                                                    ",
"                                                      >@' ' ,@'@  )@,@!@~@{@                                                    ",
"                                                      ]@^@/@(@_@  :@<@[@}@|@                                                    ",
"                                                                                                                                ",
"                                                                                                                                ",
"                                                                                                                                ",
"                                                                                                                                ",
"                                                                                                                                ",
"                                                                                                                                ",
"                                                                                                                                ",
"                                                                                                                                ",
"                                                                                                                                ",
"                                                                                                                                ",
"                                                                                                                                ",
"                                                                                                                                ",
"                                                                                                                                ",
"                                                                                                                                ",
"                                                                                                                                ",
"                                                                                                                                ",
"                                                                                                                                "};
