/* XPM */
static char * P_xpm[] = {
"64 64 309 2",
"  	c #78C273",
". 	c #EC90C5",
"+ 	c #ED92C7",
"@ 	c #EE92C8",
"# 	c #EE92C7",
"$ 	c #FDAFDE",
"% 	c #FEB0DF",
"& 	c #F6A3D4",
"* 	c #EC8FC5",
"= 	c #F096CA",
"- 	c #F29CCE",
"; 	c #EB90C5",
"> 	c #F9A7D8",
", 	c #EC90C6",
"' 	c #EC8FC6",
") 	c #ED91C7",
"! 	c #EF95CA",
"~ 	c #EE94C8",
"{ 	c #EB90C6",
"] 	c #FAA8D9",
"^ 	c #FBABDB",
"/ 	c #EA90C5",
"( 	c #ED91C6",
"_ 	c #F198CC",
": 	c #F49ED1",
"< 	c #F7A4D6",
"[ 	c #FBAADA",
"} 	c #FCACDC",
"| 	c #ED93C8",
"1 	c #FCADDD",
"2 	c #FDAEDD",
"3 	c #EC91C6",
"4 	c #F6A1D3",
"5 	c #F6A1D4",
"6 	c #EE93C8",
"7 	c #F199CD",
"8 	c #FAA9DA",
"9 	c #ED90C6",
"0 	c #F097CB",
"a 	c #FBAADB",
"b 	c #FEB1E0",
"c 	c #F9A8D8",
"d 	c #F29BCF",
"e 	c #F4A0D2",
"f 	c #FFB1E0",
"g 	c #EF96C9",
"h 	c #F8A6D6",
"i 	c #EF96CA",
"j 	c #F6A2D4",
"k 	c #FDADDD",
"l 	c #FEB0E0",
"m 	c #F8A5D7",
"n 	c #F39CCF",
"o 	c #F4A7D4",
"p 	c #F3A6D3",
"q 	c #F49FD1",
"r 	c #FBACDC",
"s 	c #F7A4D5",
"t 	c #FAAADA",
"u 	c #EDA3CD",
"v 	c #FBEFF6",
"w 	c #FBF0F6",
"x 	c #F1BCD9",
"y 	c #F098CB",
"z 	c #FCACDB",
"A 	c #EF95C9",
"B 	c #F2A5D1",
"C 	c #DD91B9",
"D 	c #FEB0DE",
"E 	c #D487AF",
"F 	c #F29ACD",
"G 	c #F39DD0",
"H 	c #F5A2D4",
"I 	c #FDAEDE",
"J 	c #FFB0DF",
"K 	c #F5A1D2",
"L 	c #F6D4E6",
"M 	c #FFFFFF",
"N 	c #9B9B9B",
"O 	c #9B9197",
"P 	c #E396C1",
"Q 	c #C97CA2",
"R 	c #FAACDA",
"S 	c #F0A4D0",
"T 	c #F8A5D6",
"U 	c #FEAFDF",
"V 	c #F5A1D3",
"W 	c #EC94C6",
"X 	c #ED99C9",
"Y 	c #F6A2D3",
"Z 	c #F3C8DF",
"` 	c #B7B7B7",
" .	c #987387",
"..	c #F49FD2",
"+.	c #F7AAD7",
"@.	c #EB8FC5",
"#.	c #F8A7D8",
"$.	c #F0B3D5",
"%.	c #FDFAFC",
"&.	c #FEFCFD",
"*.	c #EFB6D6",
"=.	c #FCADDC",
"-.	c #EC95C8",
";.	c #F4CDE3",
">.	c #F4CAE1",
",.	c #EC97C8",
"'.	c #FCAEDD",
").	c #F9A8D9",
"!.	c #F29BCE",
"~.	c #F199CC",
"{.	c #F9EAF2",
"].	c #ADADAD",
"^.	c #C0AAB5",
"/.	c #EF98CC",
"(.	c #F59FD1",
"_.	c #FEB1DF",
":.	c #F098CA",
"<.	c #FAECF4",
"[.	c #808080",
"}.	c #896077",
"|.	c #F099CC",
"1.	c #F8A6D7",
"2.	c #EF94C8",
"3.	c #EE95C9",
"4.	c #ED90C5",
"5.	c #ED8FC6",
"6.	c #F0B4D5",
"7.	c #FCF3F9",
"8.	c #FAEDF4",
"9.	c #EFACD2",
"0.	c #EE94C9",
"a.	c #F7A3D5",
"b.	c #FAA9D9",
"c.	c #F6A3D5",
"d.	c #F5A0D2",
"e.	c #F19ACD",
"f.	c #FEACDD",
"g.	c #FEAFDE",
"h.	c #F9A8D7",
"i.	c #FDA5DA",
"j.	c #FE90D2",
"k.	c #FF8DD1",
"l.	c #FE98D5",
"m.	c #FEAADC",
"n.	c #F299CC",
"o.	c #FDACDD",
"p.	c #FF8FD1",
"q.	c #FEA9DC",
"r.	c #F49DD0",
"s.	c #FEA3DA",
"t.	c #FE96D4",
"u.	c #F49FD0",
"v.	c #FE8ED1",
"w.	c #F39ED1",
"x.	c #F49ED0",
"y.	c #FEA8DB",
"z.	c #FE8FD1",
"A.	c #DD5E9F",
"B.	c #F39CCE",
"C.	c #FE94D4",
"D.	c #FE9AD6",
"E.	c #DD62A0",
"F.	c #FF92D3",
"G.	c #FF8FD2",
"H.	c #FEABDD",
"I.	c #F299CB",
"J.	c #E986BB",
"K.	c #E984B9",
"L.	c #FEAEDF",
"M.	c #FEA0D8",
"N.	c #FE9BD6",
"O.	c #FEAADD",
"P.	c #DA5B9B",
"Q.	c #E882B8",
"R.	c #F093C6",
"S.	c #DA5D9C",
"T.	c #ED8FC5",
"U.	c #F5A0D1",
"V.	c #D95297",
"W.	c #DF68A4",
"X.	c #F6A2D2",
"Y.	c #F095C7",
"Z.	c #E271AA",
"`.	c #DD65A2",
" +	c #FAA7D8",
".+	c #F198CB",
"++	c #DD619F",
"@+	c #D64A92",
"#+	c #DB579A",
"$+	c #E373AC",
"%+	c #F194C7",
"&+	c #F6A4D4",
"*+	c #FBABDA",
"=+	c #EE90C6",
"-+	c #F29ACE",
";+	c #E76B92",
">+	c #E34C64",
",+	c #EB87B8",
"'+	c #ED8BBD",
")+	c #EA6B86",
"!+	c #E6454E",
"~+	c #E33741",
"{+	c #E23641",
"]+	c #E33F48",
"^+	c #EA5964",
"/+	c #EB79A0",
"(+	c #EC8DC2",
"_+	c #EE93C7",
":+	c #EC8CC0",
"<+	c #EB789E",
"[+	c #EA5B68",
"}+	c #EA575F",
"|+	c #EA565E",
"1+	c #E43B46",
"2+	c #E23642",
"3+	c #E9525A",
"4+	c #EA5D6B",
"5+	c #EB7598",
"6+	c #EB85B4",
"7+	c #ED8FC3",
"8+	c #EF94C9",
"9+	c #EC8CBF",
"0+	c #ED81AD",
"a+	c #EA708F",
"b+	c #EA5A65",
"c+	c #EA575E",
"d+	c #E84D56",
"e+	c #E23540",
"f+	c #FFB2E0",
"g+	c #FEAFDC",
"h+	c #EA667C",
"i+	c #E95A65",
"j+	c #EA657B",
"k+	c #EB6C88",
"l+	c #EC708F",
"m+	c #EC6F8D",
"n+	c #EA6881",
"o+	c #EA6172",
"p+	c #E33D47",
"q+	c #ED7997",
"r+	c #FFB1E1",
"s+	c #F9A2CC",
"t+	c #E45164",
"u+	c #E74C54",
"v+	c #E23B48",
"w+	c #FBA8D5",
"x+	c #FFB1DF",
"y+	c #E43F48",
"z+	c #E33843",
"A+	c #FEB2DF",
"B+	c #E23541",
"C+	c #E74B54",
"D+	c #E5454E",
"E+	c #E33641",
"F+	c #FEB2E0",
"G+	c #E9555C",
"H+	c #E84F57",
"I+	c #E23741",
"J+	c #E64851",
"K+	c #E4414A",
"L+	c #E74F57",
"M+	c #E64A53",
"N+	c #EA555D",
"O+	c #E95159",
"P+	c #E33B46",
"Q+	c #EB565E",
"R+	c #E5424C",
"S+	c #E33B45",
"T+	c #E65B71",
"U+	c #E64751",
"V+	c #E4424B",
"W+	c #E34250",
"X+	c #E64C54",
"Y+	c #E64750",
"Z+	c #E23640",
"`+	c #E9515A",
" @	c #E23742",
".@	c #E9555D",
"+@	c #E43B44",
"@@	c #E64C55",
"#@	c #E74D55",
"$@	c #E84E57",
"%@	c #E75057",
"&@	c #E85059",
"*@	c #E8525A",
"=@	c #E8535B",
"-@	c #E9535C",
";@	c #EA545D",
">@	c #EA555E",
",@	c #EA565F",
"'@	c #EB575F",
")@	c #E8515A",
"!@	c #E13640",
"~@	c #E75D72",
"{@	c #E65366",
"]@	c #E23743",
"^@	c #E13F4E",
"/@	c #E23A46",
"(@	c #E33640",
"_@	c #FFB0E0",
":@	c #C187AA",
"<@	c #825B73",
"[@	c #030303",
"}@	c #020202",
"|@	c #B981A3",
"1@	c #5F4051",
"2@	c #030403",
"3@	c #040404",
"4@	c #020302",
"                                                                                                                                ",
"                                                                                                                                ",
"                                                  . + @ .                                                                       ",
"                                                  # $ % & *                                                                     ",
"                                                  = % % % - ;                                                                   ",
"                                                  # % % % > *                 , , ' * ) ! ~ * *                                 ",
"                                      { ,         * ] % % ^ *       / , ( _ : < [ } | 1 % % 2 & ( *                             ",
"                                    3 4 5 6 .       7 % % 8 * 9 * 0 4 a b b % % % c d % % % % % } 6 .                           ",
"                                  . e f % 2 g *     * > h i + j k l m # * _ } % % h n % % % % o p 8 *                           ",
"                                  * q % % % r ,       * 0 s > % % t u v w x y % % z A % B C D E E % F .                         ",
"                                    6 % % % % G . , ~ H I } t J % K L M N O . $ % % | ^ P Q R B S % & *                         ",
"                                    . K % % % T * : U b V W X 0 $ Y Z M `  .+ % % % ..n $ +.% % % % s *                         ",
"                                      @.s % s + G I % #.$.%.&.*.5 =.-.;.>.,.m % % % '.) ).% % % % % !.*                         ",
"                                        , !.6 ^ % % % ~.{.M ].^./.% z q (.a l % % % % h 3 m % % % & *                           ",
"                                          ) e _.% % % :.<.M [.}.|.% % % % l % % % % % % 1.) 2.n 3.* 4.                          ",
"                                        5.c % % % % % & 6.7.8.9.s % % % % % % % % % % % % $ 1.q * .                             ",
"                                      . ..% % % % % % % K 0.! a.% % % % % % % % % % % % % % b.# ,                               ",
"                                      @ $ % % % % % % % % % % % % % % % % % % % % % % % % c., 9                                 ",
"                                      d.l % % % % % % % % % % % % % % % % % % % % % % =.e.*                                     ",
"                                    * ^ % % % f.g.% % % % % % % % % % % % % % % % h._ 3 .                                       ",
"                                    | % % i.j.k.k.l.m.% % % % % % % % % % % % % =.0 @                                           ",
"                                    n.% o.k.k.k.k.k.p.q.% % % % % % % % % % % % % % T *                                         ",
"                                    r.% s.k.k.k.k.k.k.t.% % % % % % % % % % % % % % % @                                         ",
"                                  { u.% s.k.k.k.k.k.k.v.l % % % % % % % % % % % c % % w.                                        ",
"                                  , x.% y.k.k.k.k.k.k.z.b % % % % % % % % % % % A.% % T 9                                       ",
"                                    B.% % C.k.k.k.k.k.D.% % % % % % % % % % % [ E.% % [ *                                       ",
"                                    i % % f.F.k.k.k.G.H.% % I.% % % % % % % % J.K.% % t 4.                                      ",
"                                    * I % % L.M.l.N.O.% % U P.Q.U % % % % % R.S.z % % c T.                                      ",
"                                    * T % % % % % % % % % % U.V.W.R.X.Y Y.Z.`. +% % % d.*                                       ",
"                                    { .+% % % % % % % % % % % b.Q.++@+#+$+%+g.% % % % 0.                                        ",
"                                      * b.% % % % % % % % % % % % % % % b % % % % % &+*                                         ",
"                                      , A $ % % % % % % % % % % % % % % % % % % % *+=+                                          ",
"                                        . !.l % % % % % % % % % % % % % % % % % t +                                             ",
"                                          T.-+g.% % % % % % % % % % % % % % % j 4.;+                                            ",
"                                          >+,+~ 1.% % % % % % % % % % % % 1.i '+)+!+~+                                          ",
"                                        {+]+^+/+(+A K b.U % % % % 2 c q _+:+<+[+}+|+1+{+                                        ",
"                                        2+3+}+}+4+5+6+7+@.# ! 8+9 * 9+0+a+b+c+}+}+}+d+e+                                        ",
"                                  f+_.g+h+}+}+}+}+}+}+i+j+k+l+m+n+o+}+c+}+}+}+c+}+}+}+p+q+_.b                                   ",
"                              r+% % s+t+3+}+c+}+}+}+}+}+}+}+}+}+}+}+}+}+}+}+}+}+}+}+c+u+v+w+% % x+                              ",
"                  b % % f _.b b     {+y+}+c+}+}+c+}+}+}+}+}+}+}+}+}+}+}+}+}+}+}+c+}+}+|+z+      f % _._.% % A+                  ",
"                      % % f         B+C+}+}+}+}+}+}+}+}+}+}+}+}+}+}+}+}+}+}+}+}+}+}+}+}+D+E+        % % _.                      ",
"                  F+b f b           e+G+}+}+}+c+}+}+}+}+}+}+}+}+}+}+}+}+}+}+}+}+}+}+}+}+H+e+          % _.%                     ",
"                  f   b           {+y+}+}+}+}+}+}+}+}+}+}+}+}+}+}+}+}+}+}+}+}+c+}+}+}+}+|+I+          f   b                     ",
"                                  e+J+}+}+}+}+}+}+}+}+}+}+}+}+}+}+}+}+}+}+}+}+}+}+}+}+}+c+K+E+                                  ",
"                                  B+L+}+}+}+}+}+}+}+}+}+}+}+}+}+}+}+}+}+}+}+}+}+}+}+}+}+}+M+E+                                  ",
"                          b _.    E+N+}+}+}+}+c+}+}+}+}+}+}+}+}+}+}+}+}+}+}+}+}+}+}+}+}+}+O+e+                                  ",
"                        _.% % b   P+}+}+}+}+}+}+}+}+}+}+}+}+}+}+}+}+}+}+}+}+}+}+}+}+}+}+}+Q+e+                                  ",
"                    b   % b b _.E+R+}+}+}+}+}+}+}+}+}+}+}+}+}+c+}+}+}+}+}+}+}+}+}+}+}+}+c+}+S+                                  ",
"                    % b b % % b T+U+}+}+}+}+}+}+}+}+}+}+}+}+}+}+}+}+}+}+}+}+}+}+}+}+}+}+}+}+V+e+                                ",
"                      b f b b A+W+X+}+}+}+}+}+}+}+}+}+}+}+}+}+}+}+}+}+}+}+}+}+}+}+}+}+}+}+}+Y+Z+                                ",
"                                {+`+}+}+}+}+}+}+}+}+}+}+}+}+}+}+}+}+}+}+}+}+}+}+}+}+}+}+}+}+u+e+                                ",
"                                {+N+}+}+}+}+}+}+}+}+}+}+}+}+}+}+}+}+}+}+}+}+}+}+}+}+}+}+}+}+O+Z+                                ",
"                                 @}+}+}+}+}+}+}+}+}+}+}+}+}+}+}+}+}+}+}+}+c+}+}+}+}+}+}+}+}+.@e+                                ",
"                               @+@@@#@$@%@&@O+*@*@*@=@-@;@>@|+,@'@}+'@'@'@'@'@}+|+|+;@=@*@)@O+{+                                ",
"                                Z+E+E+!@e+Z+{+~@{@E+Z+Z+Z+e+{+B+e+e+e+e+]@^@/@{+{+{+e+(@E+e+E+E+                                ",
"                                              _._.                        %                                                     ",
"                                              % %                         %                                                     ",
"                                              _@b                         %                                                     ",
"                                              f F+                        %                                                     ",
"                                              b                           %                                                     ",
"                                              :@<@[@}@}@}@}@[@            |@1@2@}@}@}@}@                                        ",
"                                              }@}@}@}@}@}@}@3@            }@4@}@}@}@}@}@                                        ",
"                                                                                                                                ",
"                                                                                                                                "};
